<!--?xml version="1.0" standalone="no"?-->
              <svg id="sw-js-blob-svg" viewBox="0 0 100 100" xmlns="http://www.w3.org/2000/svg" version="1.1">
                    <defs> 
                        <linearGradient id="sw-gradient" x1="0" x2="1" y1="1" y2="0">
                            <stop id="stop1" stop-color="rgba(24, 47, 51, 0.8)" offset="0%"></stop>
                            <stop id="stop2" stop-color="rgba(0, 224, 190, 0.9)" offset="100%"></stop>
                        </linearGradient>
                    </defs>
                <path fill="url(#sw-gradient)" d="M22,-30.7C28.9,-25.2,35.2,-19.3,37.2,-12.3C39.2,-5.2,37,3,33.4,9.9C29.9,16.9,25.2,22.5,19.4,28.5C13.6,34.4,6.8,40.8,0.8,39.6C-5.2,38.5,-10.3,29.9,-18.1,24.6C-26,19.3,-36.5,17.3,-38.6,12.2C-40.7,7.1,-34.4,-1,-30.4,-8.8C-26.4,-16.6,-24.6,-24,-19.9,-30.2C-15.2,-36.4,-7.6,-41.5,0,-41.4C7.5,-41.4,15,-36.2,22,-30.7Z" width="100%" height="100%" transform="translate(50 50)" stroke-width="0" style="transition: all 0.3s ease 0s;"></path>
              </svg>